<svg xmlns="http://www.w3.org/2000/svg" xmlns:xlink="http://www.w3.org/1999/xlink" viewBox="0 0 167.34 218.09"><defs><style>.cls-1{fill:url(#Безымянный_градиент_32);}.cls-2{fill:url(#Безымянный_градиент_32-2);}.cls-3{fill:url(#Безымянный_градиент_32-3);}.cls-4{fill:url(#Безымянный_градиент_32-4);}.cls-5{fill:url(#Безымянный_градиент_32-5);}</style><linearGradient id="Безымянный_градиент_32" x1="33.2" y1="218.28" x2="33.2" y2="0.37" gradientUnits="userSpaceOnUse"><stop offset="0" stop-color="aqua"/><stop offset="1" stop-color="blue"/></linearGradient><linearGradient id="Безымянный_градиент_32-2" x1="102.15" y1="219.6" x2="102.15" y2="10.57" xlink:href="#Безымянный_градиент_32"/><linearGradient id="Безымянный_градиент_32-3" x1="115.74" y1="198.58" x2="115.74" y2="-2.84" xlink:href="#Безымянный_градиент_32"/><linearGradient id="Безымянный_градиент_32-4" x1="76.08" y1="217.68" x2="76.08" y2="58.87" xlink:href="#Безымянный_градиент_32"/><linearGradient id="Безымянный_градиент_32-5" x1="49.34" y1="218.28" x2="49.34" y2="179.45" xlink:href="#Безымянный_градиент_32"/></defs><title>Ресурс 9</title><g id="Слой_2" data-name="Слой 2"><g id="Слой_1-2" data-name="Слой 1"><path class="cls-1" d="M0,216.74c2.38-18.76,6-37.2,9.85-55.56S18.18,124.62,23,106.49s9.94-36.14,15.52-54Q42.68,39,47.22,25.7l1.13-3.32.55-1.65a4.33,4.33,0,0,1,.19-.48.74.74,0,0,0,.05-.11l0-.33c0-.22.07-.42.12-.63a7.62,7.62,0,0,1,2.53-4.12c.32-.26.53-.41.77-.59l.72-.52,1.44-1Q60.49,8.8,66.4,4.88,61.77,10.27,57,15.44L54.64,18a3.16,3.16,0,0,0-.71,2,2.38,2.38,0,0,0,0,.24v.1a2.33,2.33,0,0,1,0,.32c0,.41-.1.85-.16,1.24l-.27,1.77-.57,3.51c-1.58,9.3-3.4,18.5-5.33,27.69q-5.83,27.55-13.05,54.72t-15.62,54C13.24,181.47,7.22,199.27,0,216.74Z"/><path class="cls-2" d="M152.75,218.09c-7.71-19.7-14.27-39.71-20.49-59.8S120.35,118,115,97.66s-10.33-40.75-15-61.17l-.88-3.73c-.15-.65-.26-1.09-.42-1.59s-.34-1-.54-1.48a19.85,19.85,0,0,0-1.5-2.88c-.27-.44-.62-.94-.85-1.25,0,0-.09-.12-.16-.2l-.26-.29c-.18-.19-.37-.39-.57-.58a20.21,20.21,0,0,0-2.54-2.12A10.87,10.87,0,0,0,89.65,21a32.85,32.85,0,0,0-7-1.42,110.67,110.67,0,0,0-15.4-.41c-2.61.07-5.22.25-7.84.44l-3.94.31c-1.31.13-2.62.26-3.95.37,2.49-.91,5-1.7,7.56-2.47s5.13-1.38,7.74-2a88.58,88.58,0,0,1,16-2.19,38,38,0,0,1,8.6.61A17.34,17.34,0,0,1,96.09,16a27.8,27.8,0,0,1,3.84,2.5c.3.23.6.48.9.73l.45.39c.17.15.27.23.53.51A22.49,22.49,0,0,1,103.4,22a28.36,28.36,0,0,1,2.54,3.87c.37.69.72,1.39,1,2.12s.61,1.53.82,2.14c.48,1.35.86,2.59,1.27,3.85,6.41,20.11,12.14,40.31,17.51,60.64s10.3,40.75,14.78,61.31S149.85,197.13,152.75,218.09Z"/><path class="cls-3" d="M167.34,197.15c-7.34-19.47-13.51-39.22-19.46-59s-11.42-39.69-16.72-59.61l-7.83-29.89-3.9-14.9c-.65-2.48-1.33-4.94-2-7.39s-1.37-4.9-2.12-7.21c-.36-1.14-.8-2.33-1.11-3.09l-.08-.21,0-.11-.1-.16c-.14-.22-.26-.45-.4-.66q-.42-.66-.9-1.29a21.5,21.5,0,0,0-2.15-2.4,16.75,16.75,0,0,0-2.34-1.92A17.24,17.24,0,0,0,102.24,7a35.89,35.89,0,0,0-3.55-.53c-1.22-.17-2.48-.23-3.72-.34-10.07-.67-20.45-.32-30.83,0q7.5-2.18,15.19-3.67A138.07,138.07,0,0,1,94.94.21C96.28.13,97.61,0,99,0s2.71,0,4.17.06a24.09,24.09,0,0,1,8.78,2.27,21.86,21.86,0,0,1,4,2.53,30,30,0,0,1,3.35,3q.78.83,1.51,1.74c.24.3.47.62.7.93l.18.24.2.32.39.64a39.15,39.15,0,0,1,1.91,4c2.09,5,3.77,9.91,5.43,14.87s3.2,9.9,4.73,14.86,2.94,9.94,4.37,14.92l4.1,15q8,30,14.25,60.4C161.13,156.13,164.87,176.49,167.34,197.15Z"/><path class="cls-4" d="M78.92,78c-.63-2-1.22-4-2-6a27.77,27.77,0,0,0-1.22-2.78,8.89,8.89,0,0,0-1.5-2.21c-.26-.24-.53-.37-.62-.34s0,.1,0,.16-.22.25-.4.52a8.27,8.27,0,0,0-.56,1,29,29,0,0,0-1.75,5.41c-.93,3.88-1.57,7.94-2.17,12S67.57,94,67.09,98.12c-1,8.23-1.84,16.49-2.73,24.76L63,135.31l-.72,6.22-.36,3.11a5.61,5.61,0,0,0-.06.82c0,.16,0,.24,0,.17a2.44,2.44,0,0,0-1.26-1.42,1.64,1.64,0,0,0-.51-.19,5.6,5.6,0,0,0,.76,0l1.48,0h.76l.74,0c1.1,0,2.17,0,3.25,0,4.31,0,8.62.17,13,.55l1.63.16c.53.05,1.09.11,1.78.2a17.51,17.51,0,0,1,4.45,1.17,14.25,14.25,0,0,1,2.23,1.18l.53.36c.18.13.31.21.61.46s.65.57.93.85A16.88,16.88,0,0,1,95,152.55c.2.34.37.69.55,1.06s.32.79.47,1.18a10,10,0,0,1,.31,1l.26.91c.28,1.13.55,2.24.75,3.31.43,2.16.77,4.26,1.11,6.36,1.28,8.41,2.17,16.76,2.82,25.16s1.07,16.81,1,25.27c-5-16.14-8.85-32.5-13.08-48.5-.53-2-1.06-4-1.65-5.88s-1.24-4.06-1.63-4.42a6.31,6.31,0,0,0-1.14-1.21,1.93,1.93,0,0,0-.25-.18c.1.08,0,0,0,0l-.13-.07a3.36,3.36,0,0,0-.57-.24,7,7,0,0,0-1.63-.28l-1.34-.07-1.5-.06c-4-.14-8.08-.18-12.13-.06l-6.31.16a17.28,17.28,0,0,1-2.38-.12A10.24,10.24,0,0,1,55,154.8a9.3,9.3,0,0,1-3.29-2.92,10.14,10.14,0,0,1-1.52-3.44,12.53,12.53,0,0,1-.33-2.94,17.69,17.69,0,0,1,.16-2.3l.4-3.11.81-6.23c.6-4.15,1.17-8.31,1.84-12.47,1.33-8.31,2.84-16.6,4.72-24.86.95-4.13,2-8.25,3.17-12.35a102.16,102.16,0,0,1,4.3-12.23,30.94,30.94,0,0,1,3.36-6A11.78,11.78,0,0,1,70,64.43a6,6,0,0,1,2.13-1.29,3.86,3.86,0,0,1,3,.24,4.81,4.81,0,0,1,1.74,1.67,11.12,11.12,0,0,1,1.31,3.37,27.4,27.4,0,0,1,.53,3.24A55,55,0,0,1,78.92,78Z"/><path class="cls-5" d="M50.7,180.53a56.54,56.54,0,0,1,.69,12.73c-.18,4.09-.61,8.1-1,11.91-.2,1.87-.39,3.8-.4,5.18,0,.31,0,.62,0,.67s0-.21-1-.82a3.15,3.15,0,0,0-.75-.27,1.75,1.75,0,0,0-.39,0h-.27l-.26.05-.13,0c-.07,0-.18.1-.15.1a.18.18,0,0,0,0,.06l.13,0c.08,0,.25-.08.39-.12a14.55,14.55,0,0,0,2.18-1.3c.78-.53,1.59-1.14,2.42-1.74,1.67-1.21,3.37-2.5,5.33-3.65a26.6,26.6,0,0,1-1.84,6.37,25,25,0,0,1-1.52,3,14.69,14.69,0,0,1-2.26,3,8.65,8.65,0,0,1-.88.75l-.53.38-.69.37a4.55,4.55,0,0,1-.88.33l-.5.13-.65.07h-.66a6.89,6.89,0,0,1-.77-.12,4.81,4.81,0,0,1-1.46-.56,5.74,5.74,0,0,1-1.15-.87,6.74,6.74,0,0,1-.74-.89,7.26,7.26,0,0,1-.8-1.54,12.45,12.45,0,0,1-.63-2.34,26.43,26.43,0,0,1-.07-7.12,51,51,0,0,1,3.07-12.38A42.8,42.8,0,0,1,50.7,180.53Z"/></g></g></svg>