<svg xmlns="http://www.w3.org/2000/svg" xmlns:xlink="http://www.w3.org/1999/xlink" viewBox="0 0 192.66 194.5"><defs><style>.cls-1{fill:url(#Безымянный_градиент_32);}.cls-2{fill:url(#Безымянный_градиент_32-2);}.cls-3{fill:url(#Безымянный_градиент_32-3);}.cls-4{fill:url(#Безымянный_градиент_32-4);}.cls-5{fill:url(#Безымянный_градиент_32-5);}.cls-6{fill:url(#Безымянный_градиент_32-6);}.cls-7{fill:url(#Безымянный_градиент_32-7);}.cls-8{fill:url(#Безымянный_градиент_32-8);}.cls-9{fill:url(#Безымянный_градиент_32-9);}.cls-10{fill:url(#Безымянный_градиент_32-10);}.cls-11{fill:url(#Безымянный_градиент_32-11);}.cls-12{fill:url(#Безымянный_градиент_32-12);}.cls-13{fill:url(#Безымянный_градиент_32-13);}.cls-14{fill:url(#Безымянный_градиент_32-14);}.cls-15{fill:url(#Безымянный_градиент_32-15);}.cls-16{fill:url(#Безымянный_градиент_32-16);}.cls-17{fill:url(#Безымянный_градиент_32-17);}</style><linearGradient id="Безымянный_градиент_32" x1="60.83" y1="104.89" x2="120.06" y2="104.89" gradientUnits="userSpaceOnUse"><stop offset="0" stop-color="aqua"/><stop offset="1" stop-color="blue"/></linearGradient><linearGradient id="Безымянный_градиент_32-2" x1="57.88" y1="106.48" x2="116.05" y2="106.48" xlink:href="#Безымянный_градиент_32"/><linearGradient id="Безымянный_градиент_32-3" x1="106.97" y1="179.64" x2="120.44" y2="179.64" xlink:href="#Безымянный_градиент_32"/><linearGradient id="Безымянный_градиент_32-4" x1="152.63" y1="147.84" x2="175.83" y2="147.84" xlink:href="#Безымянный_градиент_32"/><linearGradient id="Безымянный_градиент_32-5" x1="71.78" y1="29.37" x2="178.14" y2="29.37" xlink:href="#Безымянный_градиент_32"/><linearGradient id="Безымянный_градиент_32-6" x1="153.56" y1="99.55" x2="192.66" y2="99.55" xlink:href="#Безымянный_градиент_32"/><linearGradient id="Безымянный_градиент_32-7" x1="38.94" y1="28.41" x2="68.03" y2="23.28" xlink:href="#Безымянный_градиент_32"/><linearGradient id="Безымянный_градиент_32-8" x1="0.76" y1="71.06" x2="28.73" y2="71.06" xlink:href="#Безымянный_градиент_32"/><linearGradient id="Безымянный_градиент_32-9" x1="-0.97" y1="64.09" x2="29.89" y2="64.09" xlink:href="#Безымянный_градиент_32"/><linearGradient id="Безымянный_градиент_32-10" x1="22.95" y1="24.35" x2="88.25" y2="24.35" xlink:href="#Безымянный_градиент_32"/><linearGradient id="Безымянный_градиент_32-11" x1="101.81" y1="26.72" x2="127.68" y2="26.72" xlink:href="#Безымянный_градиент_32"/><linearGradient id="Безымянный_градиент_32-12" x1="137.42" y1="79.44" x2="185.14" y2="79.44" xlink:href="#Безымянный_градиент_32"/><linearGradient id="Безымянный_градиент_32-13" x1="140.12" y1="157.49" x2="169.56" y2="157.49" xlink:href="#Безымянный_градиент_32"/><linearGradient id="Безымянный_градиент_32-14" x1="57.15" y1="177.31" x2="134.27" y2="177.31" xlink:href="#Безымянный_градиент_32"/><linearGradient id="Безымянный_градиент_32-15" x1="-0.65" y1="134.58" x2="49.56" y2="134.58" xlink:href="#Безымянный_градиент_32"/><linearGradient id="Безымянный_градиент_32-16" x1="42.98" y1="80.28" x2="130.04" y2="80.28" xlink:href="#Безымянный_градиент_32"/><linearGradient id="Безымянный_градиент_32-17" x1="49.29" y1="126.67" x2="138.4" y2="126.67" xlink:href="#Безымянный_градиент_32"/></defs><title>Ресурс 6</title><g id="Слой_2" data-name="Слой 2"><g id="Слой_1-2" data-name="Слой 1"><path class="cls-1" d="M63.6,87.29a34.44,34.44,0,0,1,6.71-7,32.15,32.15,0,0,1,8.47-4.92,28.08,28.08,0,0,1,9.73-1.84,29.34,29.34,0,0,1,9.82,1.69A33,33,0,0,1,114.23,87,30.72,30.72,0,0,1,120,106a29.15,29.15,0,0,1-2.06,9.88,33.06,33.06,0,0,1-2.19,4.56l-1.39,2.11c-.46.71-1,1.33-1.56,2a34.37,34.37,0,0,1-7.53,6.62,33.36,33.36,0,0,1-9.15,4,28.44,28.44,0,0,1-19.5-1.56,34.48,34.48,0,0,1-8.17-5.39A35.1,35.1,0,0,1,62.06,121,37.41,37.41,0,0,0,77.2,132.29a27.39,27.39,0,0,0,9.11,1.9c.78,0,1.55.07,2.32,0l2.31-.2,2.29-.42c.76-.14,1.5-.41,2.24-.6a33.51,33.51,0,0,0,8.35-4,31.63,31.63,0,0,0,6.78-6.23c.46-.62,1-1.19,1.39-1.83l1.25-1.93a30.16,30.16,0,0,0,2-4.15,26.32,26.32,0,0,0,1.8-8.93,28.05,28.05,0,0,0-5.08-17.29A32.08,32.08,0,0,0,105.58,82l-1.87-1.37-2-1.2c-.65-.42-1.38-.7-2.06-1.07a16.88,16.88,0,0,0-2.13-.91,28.28,28.28,0,0,0-9.06-1.92,26.75,26.75,0,0,0-9.22,1.27A35.66,35.66,0,0,0,63.6,87.29Z"/><path class="cls-2" d="M74.75,77.62a33.77,33.77,0,0,0,8.31,31.62,30.46,30.46,0,0,0,15,9,30.08,30.08,0,0,0,18-1.27c-.93,2-6.07,12.58-18.3,16.73A30.6,30.6,0,0,1,66.81,127c-11.57-11.19-8.68-26.76-8.44-27.94C61.27,84.82,73.18,78.43,74.75,77.62Z"/><path class="cls-3" d="M120.44,168.4,118,181a4,4,0,0,1-.3.94h0a5.9,5.9,0,0,1-.55.87c-.24.31-4.29,4.52-9.9,10.24l-.31-1.39,5.1-23.37,6.5-2Z"/><path class="cls-4" d="M165.33,131.43l10.29,18a2.25,2.25,0,0,1,.1,1.71l-7.6,11.65-.78,1.48-.36-2-14.34-22.92,2.87-7.14Z"/><path class="cls-5" d="M71.83,8.75a.56.56,0,0,1,0-.4L80.49.84A3.33,3.33,0,0,1,83,0L116,2.3A3.75,3.75,0,0,1,119,5l5,25.48a.79.79,0,0,0,.13.39.82.82,0,0,0,.31.27l3.8,2a.68.68,0,0,0,.33.09.73.73,0,0,0,.4-.13c.28-.18,9.35-5.5,21.86-12.83a2.49,2.49,0,0,1,2.84.33l23.88,26.17a2,2,0,0,1,.18,2.38L171,58.33a.62.62,0,0,1-.71.38.47.47,0,0,1-.23-.28L143.74,29.25a1,1,0,0,0-1.26-.09L119.56,43.34,113.06,41l-4-29.22a1.7,1.7,0,0,0-.54-.78,1.68,1.68,0,0,0-.91-.36L72.17,9.05A.56.56,0,0,1,71.83,8.75Z"/><path class="cls-6" d="M161.95,68.7l2.62,5.53a1.62,1.62,0,0,0,1,1l26.1,7.64a1.82,1.82,0,0,1,1,1.3L192,117.91a2.7,2.7,0,0,1-.4,1.35l-8.09,11c-.13.15-.18.14-.2.13s0-.39,0-.42l.48-35.22-27.66-8.67-2.5-6.5Z"/><path class="cls-7" d="M37.67,21a.75.75,0,0,1,.36-.52l10.51-8.24a1.51,1.51,0,0,1,.85-.27,1.67,1.67,0,0,1,1,.38c.64.48,7.7,5.74,17.42,13a1.48,1.48,0,0,1,.71.76,1.38,1.38,0,0,1,.07.75c-.78,5.32-1.36,9.19-1.47,9.79a1.19,1.19,0,0,1-.25.56,1.28,1.28,0,0,1-.84.44L60.9,39.11a2.25,2.25,0,0,1-1.11,0A2.19,2.19,0,0,1,59,38.8l-20.88-17A.76.76,0,0,1,37.67,21Z"/><path class="cls-8" d="M.76,76.35l12.54-9.2a2.88,2.88,0,0,1,1.82-.56l11.61-.81,2,3-2.11,5.87Z"/><path class="cls-9" d="M12.73,44.91c1.63,1.91,3.18,3.86,4.71,5.83s3,4,4.51,6,2.95,4,4.37,6.05l2.15,3,.55.8a5,5,0,0,1,.71,3.79v.05l0,.07-.89,2.91v0l0,.07a5,5,0,0,1-2,2.38,5.23,5.23,0,0,1-3,.8H24c-1.85.1-3.69.22-5.54.28l-5.54.2c-3.7.09-7.4.16-11.1.13H1.63a.46.46,0,0,0-.19,0,.39.39,0,0,0-.32.2.6.6,0,0,0-.07.23v0q-.15,2.75-.4,5.5Q.28,80.54,0,77.8v0a1.65,1.65,0,0,1,.06-.71,1.55,1.55,0,0,1,.39-.64,1.61,1.61,0,0,1,.65-.39A1.77,1.77,0,0,1,1.86,76H1.71c3.67-.5,7.35-.91,11-1.28l5.52-.5c1.84-.18,3.68-.29,5.53-.43h.13A2.19,2.19,0,0,0,26,72.42l0,.11.94-2.9,0,.12a2.05,2.05,0,0,0,0-1.08,2.11,2.11,0,0,0-.23-.5l-.49-.75-2-3.15c-1.35-2.1-2.66-4.22-4-6.35s-2.57-4.28-3.81-6.44S13.88,47.14,12.73,44.91Z"/><path class="cls-10" d="M88.19,9.67q-4,.13-7.94.16c-2.65,0-5.29,0-7.94,0h.13a.8.8,0,0,0-.64.64l0-.12c-.2,2.1-.45,4.2-.68,6.3s-.46,4.2-.73,6.29l-.77,6.28c-.25,2.1-.55,4.18-.83,6.28v-.11a4.27,4.27,0,0,1-.55,1.89,4,4,0,0,1-1.45,1.45,5.28,5.28,0,0,1-.81.37l-.63.24-1.27.45-1.3.41a12.08,12.08,0,0,1-1.47.36,4.28,4.28,0,0,1-2-.17,4.4,4.4,0,0,1-1.67-1l.08.07-4.73-4c-1.58-1.33-3.13-2.71-4.69-4.06-3.13-2.7-6.22-5.45-9.31-8.2l-.11-.1,0,0a.87.87,0,0,0-.26-.23.81.81,0,0,0-.31-.1.75.75,0,0,0-.34,0,1.2,1.2,0,0,0-.34.2l-.07.07c-2.24,1.94-4.48,3.87-6.75,5.77S26.29,32.55,24,34.4q3-3.27,6.1-6.47c2.05-2.14,4.13-4.24,6.22-6.34l-.06.07a3,3,0,0,1,.93-.73,2.76,2.76,0,0,1,1.2-.29,2.72,2.72,0,0,1,1.22.27,3,3,0,0,1,1,.75l-.14-.14c3.25,2.57,6.49,5.13,9.69,7.75,1.6,1.31,3.22,2.59,4.81,3.92l4.77,4h0l.08.07a1.34,1.34,0,0,0,1.15.36c.21,0,.68-.17,1.06-.28l1.2-.37,1.19-.41.59-.22a2.55,2.55,0,0,0,.39-.16,1.08,1.08,0,0,0,.55-1v-.11c.31-2.09.59-4.18.93-6.26l1-6.25c.32-2.09.68-4.17,1-6.25s.69-4.16,1.08-6.24L70,10v0a2.63,2.63,0,0,1,2.29-1.86h.13c2.64.21,5.27.46,7.91.71S85.55,9.35,88.19,9.67Z"/><path class="cls-11" d="M127,38.77c-1.88,1.44-3.82,2.75-5.77,4.06l.11-.07a3.34,3.34,0,0,1-3.54.55l.11,0c-1.06-.29-2.1-.62-3.14-.93l-.78-.23-.42-.12a2.82,2.82,0,0,1-1.95-2.85v.25l-.65-3.78-.57-3.79c-.4-2.52-.7-5.06-1-7.6s-.57-5.08-.76-7.64c-.11-1.28-.21-2.56-.29-3.84a1.76,1.76,0,0,0-.4-1.27,1.7,1.7,0,0,0-1.24-.51h-.1q-2.35-.32-4.69-.77,2.37-.25,4.74-.37h-.1a3,3,0,0,1,2.36.49,3.32,3.32,0,0,1,1.2,2.12c.28,1.25.53,2.51.77,3.77.51,2.51.91,5,1.35,7.57s.79,5.07,1.1,7.62l.49,3.82.41,3.83,0,.19v.07a.32.32,0,0,0,.08.29l.07.06.36.15.76.32c1,.43,2,.85,3,1.29l.11,0a1.57,1.57,0,0,0,1.7,0l.11-.07C122.59,40.52,124.74,39.58,127,38.77Z"/><path class="cls-12" d="M183.19,130.35q-.19-4.79-.31-9.57l-.2-9.58-.13-9.58,0-4.79v-.59a1.86,1.86,0,0,0,0-.36,1.71,1.71,0,0,0-.28-.65,1.73,1.73,0,0,0-1.18-.69H181l-.11,0c-3.93-1.06-7.84-2.18-11.77-3.27s-7.83-2.22-11.74-3.35l.2,0a4.23,4.23,0,0,1-3.29-2.52l-.14-.37-.23-.58-.46-1.16L153,82.13l-.23-.58-.12-.29a3.56,3.56,0,0,1-.15-.49,3.67,3.67,0,0,1,.12-2.09,3.62,3.62,0,0,1,.49-.93l.42-.54,6.12-8q3.05-4,6.15-7.94l1.55-2,.36-.46a1.81,1.81,0,0,0,.19-.31,1.68,1.68,0,0,0,.18-.68,1.59,1.59,0,0,0-.12-.68,1.81,1.81,0,0,0-.17-.32l-.09-.13-.21-.23-1.68-1.87c-4.45-5-8.89-10-13.29-15.07L145.9,32,144.27,30a5,5,0,0,0-.78-.83.9.9,0,0,0-.93,0l-4.33,2.55,4.06-3a1.46,1.46,0,0,1,1.46-.13,1.91,1.91,0,0,1,.58.45l.45.44,1.78,1.78,7.07,7.16c4.7,4.79,9.34,9.63,14,14.47l1.73,1.83.22.23a4.29,4.29,0,0,1,.29.37,4.41,4.41,0,0,1,.44.77,4.22,4.22,0,0,1,.36,1.76,4.33,4.33,0,0,1-.39,1.75,4.48,4.48,0,0,1-.44.77l-.4.54-1.5,2q-3,4-6,8l-6.06,8-.34.45a.83.83,0,0,0-.09.18.67.67,0,0,0,0,.39.57.57,0,0,0,0,.11l.11.29.23.59.46,1.18.46,1.18.23.59.08.22.06.13A1.28,1.28,0,0,0,158,85l.11,0,.09,0c3.9,1.16,7.81,2.31,11.7,3.51s7.79,2.36,11.67,3.59l-.16,0a4.11,4.11,0,0,1,2.76,1.79,4,4,0,0,1,.6,1.55,4.11,4.11,0,0,1,0,.83l0,.61-.16,4.77-.38,9.55-.46,9.55Q183.5,125.57,183.19,130.35Z"/><path class="cls-13" d="M141.06,184c4.19-4.08,8.52-8,12.89-11.82,2.2-1.9,4.38-3.84,6.61-5.7l3.33-2.82c.67-.55.84-.71,1-1.11a1.6,1.6,0,0,0,.07-1.13,1.73,1.73,0,0,0-.11-.28l0-.09-.15-.23-.61-.9-1.21-1.81q-1.22-1.8-2.4-3.63c-1.58-2.43-3.18-4.85-4.74-7.3l-2.33-3.68-1.18-1.85a5.15,5.15,0,0,1-.66-4.11,6,6,0,0,1,.48-1.21l1-2,.48-1a9.84,9.84,0,0,1,.59-1.1,3.08,3.08,0,0,1,2.67-1.29h-.06c2.13,0,4.27,0,6.4.05s4.27.1,6.41.2c-2.12.3-4.24.56-6.36.8s-4.24.47-6.37.66h-.06a1.25,1.25,0,0,0-1,.64c-.07.11-.22.55-.35.87l-.4,1-.81,2a3.68,3.68,0,0,0-.27.83,2.75,2.75,0,0,0,.5,2.15l1.24,1.78,2.49,3.6c1.66,2.4,3.27,4.84,4.9,7.26q1.23,1.81,2.42,3.65l1.2,1.83.6.92.15.23a4.06,4.06,0,0,1,.21.39,4.65,4.65,0,0,1,.27.74,4.54,4.54,0,0,1-1.16,4.41,11,11,0,0,1-1,.8l-3.45,2.68c-2.29,1.8-4.63,3.53-6.94,5.3C150.61,177.3,145.91,180.74,141.06,184Z"/><path class="cls-14" d="M57.82,162.87l4-2.28,0,0a2.45,2.45,0,0,1,2.69-.14l0,0,3.31,1.33h0l0,0a3,3,0,0,1,1.47,1.76,7.33,7.33,0,0,1,.19,1l.14.94.54,3.76,1,7.53,1,7.54.48,3.77,0,.22,0,.1a1.19,1.19,0,0,0,.07.21A1,1,0,0,0,73,189a1,1,0,0,0,.35.21,1.75,1.75,0,0,0,.57.08c5,.32,10.08.7,15.12,1.09s10.07.81,15.11,1.24h-.17a1.89,1.89,0,0,0,1.26-.5,2,2,0,0,0,.42-.57,2.55,2.55,0,0,0,.23-.72v-.12c1.16-4.9,2.27-9.81,3.47-14.71l.9-3.67.46-1.89a3.79,3.79,0,0,1,1.5-2.08,3.57,3.57,0,0,1,.57-.32,4.61,4.61,0,0,1,.54-.2l.9-.29c.6-.2,1.23-.39,1.88-.55.33-.08.66-.15,1-.2a6.26,6.26,0,0,1,1.1-.1,3.08,3.08,0,0,1,2.25,1.07l-.09-.08,6.53,5.58q3.25,2.81,6.46,5.68-3.54-2.45-7-5l-6.95-5.05,0,0-.07-.07a1.42,1.42,0,0,0-1.09-.45,5,5,0,0,0-.77.13c-.28.06-.56.14-.85.23-.56.17-1.13.39-1.71.62l-.88.35a2.57,2.57,0,0,0-.34.15l-.25.16a1.68,1.68,0,0,0-.61,1l-.35,1.8-.73,3.71c-1,4.95-2,9.88-3,14.82l0-.11a5.34,5.34,0,0,1-.49,1.6,4.93,4.93,0,0,1-1,1.4A4.8,4.8,0,0,1,104,194.5h-.17c-5-.38-10.09-.76-15.13-1.21s-10.08-.86-15.11-1.35a4.26,4.26,0,0,1-1.28-.27,3.68,3.68,0,0,1-1.24-.8,3.64,3.64,0,0,1-.81-1.23,3.79,3.79,0,0,1-.2-.69c0-.12,0-.24-.05-.36l0-.25-.34-3.77L69.05,177l-.59-7.55-.28-3.78-.06-.95a8,8,0,0,0-.08-.86,1.82,1.82,0,0,0-.81-1.15l0,0-3.18-1.62,0,0h0a1.8,1.8,0,0,0-2-.07l0,0h0Z"/><path class="cls-15" d="M.85,96.93c.36,4.53.63,9.06.88,13.59v0l0,.14a1.31,1.31,0,0,0,0,.47.94.94,0,0,0,.2.39.93.93,0,0,0,.34.25,1.07,1.07,0,0,0,.42.09h.05l.12,0c3.81.91,7.62,1.82,11.42,2.78s7.6,1.91,11.39,2.89l-.09,0a5,5,0,0,1,2.25,1,4.88,4.88,0,0,1,.86.92,5,5,0,0,1,.34.53l.14.28.1.21,1.52,3.32,0,.07,0,.09a4.71,4.71,0,0,1-.17,3.3,5.64,5.64,0,0,1-.49.88l-1.69,2.62-3.39,5.25-6.87,10.43.06-.09a1.17,1.17,0,0,0,.06,1.28l-.08-.09q5.65,6.29,11.21,12.65c1.87,2.11,3.69,4.26,5.53,6.4l2.75,3.22c.49.59.79,1,1.33,1.15a2,2,0,0,0,1.62-.17l0,0q4-1.79,8.11-3.51-3.82,2.23-7.67,4.38l0,0a3.05,3.05,0,0,1-3.61-.12c-.38-.31-.54-.52-.82-.78l-3-3c-2-2-4-4-5.92-6q-5.9-6.07-11.69-12.24l0,0,0-.06a4,4,0,0,1-.38-4.37l0,0,0-.05,6.76-10.49L26,129.24l1.72-2.61a2.93,2.93,0,0,0,.28-.47,1.8,1.8,0,0,0,.08-1.27l.06.16-1.45-3.33-.09-.21-.06-.13a2.19,2.19,0,0,0-.14-.24,2.1,2.1,0,0,0-.36-.41,2.25,2.25,0,0,0-1-.5l-.07,0h0c-3.76-1.08-7.53-2.18-11.28-3.31s-7.5-2.27-11.24-3.43l.17,0a2.63,2.63,0,0,1-1-.32,2.41,2.41,0,0,1-1.23-1.73,2.64,2.64,0,0,1,0-1l0,.16C.47,106,.61,101.47.85,96.93Z"/><path class="cls-16" d="M44.48,105.29A49,49,0,0,1,51.8,76.4,46.18,46.18,0,0,1,62,65a47.69,47.69,0,0,1,13.46-7.34,43.7,43.7,0,0,1,30.17.52,48.49,48.49,0,0,1,13,7.74A50.61,50.61,0,0,1,128.84,77a60.15,60.15,0,0,0-11-9.89,51.39,51.39,0,0,0-13-6.71,42.32,42.32,0,0,0-14.23-2.3,41.37,41.37,0,0,0-14.15,2.41,46,46,0,0,0-12.72,6.76A29.77,29.77,0,0,0,61,69.58a30.58,30.58,0,0,0-2.62,2.5,35.22,35.22,0,0,0-2.41,2.71,34.26,34.26,0,0,0-2.2,2.89A54.71,54.71,0,0,0,44.48,105.29Z"/><path class="cls-17" d="M136.9,101.81a49.43,49.43,0,0,1-8.31,29.46,46.38,46.38,0,0,1-10.94,11.26,49,49,0,0,1-14.06,7.09,42.56,42.56,0,0,1-15.67,1.77,41.22,41.22,0,0,1-15.2-4,48.13,48.13,0,0,1-12.74-9,51.43,51.43,0,0,1-9.4-12.2A60.66,60.66,0,0,0,61,137.31a50.68,50.68,0,0,0,12.72,7.94,41,41,0,0,0,14.41,3.31,40.44,40.44,0,0,0,14.62-1.8,47.81,47.81,0,0,0,24-16.84A54.89,54.89,0,0,0,136.9,101.81Z"/></g></g></svg>