<svg xmlns="http://www.w3.org/2000/svg" xmlns:xlink="http://www.w3.org/1999/xlink" viewBox="0 0 190.07 225.04"><defs><style>.cls-1,.cls-10,.cls-12,.cls-14{fill:none;}.cls-2{fill:url(#Безымянный_градиент_32);}.cls-3{fill:url(#Безымянный_градиент_32-2);}.cls-4{fill:url(#Безымянный_градиент_32-3);}.cls-5{fill:url(#Безымянный_градиент_32-4);}.cls-6{fill:url(#Безымянный_градиент_32-5);}.cls-7{fill:url(#Безымянный_градиент_32-6);}.cls-8{fill:url(#Безымянный_градиент_32-7);}.cls-9{fill:url(#Безымянный_градиент_32-8);}.cls-10,.cls-12,.cls-14{stroke-miterlimit:10;stroke-width:3px;}.cls-10{stroke:url(#Безымянный_градиент_24);}.cls-11{fill:url(#Безымянный_градиент_32-9);}.cls-12{stroke:url(#Безымянный_градиент_24-2);}.cls-13{fill:url(#Безымянный_градиент_32-10);}.cls-14{stroke:url(#Безымянный_градиент_24-3);}.cls-15{fill:url(#Безымянный_градиент_32-11);}.cls-16{fill:url(#Безымянный_градиент_32-12);}</style><linearGradient id="Безымянный_градиент_32" x1="60.3" y1="145.29" x2="190.07" y2="145.29" gradientUnits="userSpaceOnUse"><stop offset="0" stop-color="aqua"/><stop offset="1" stop-color="blue"/></linearGradient><linearGradient id="Безымянный_градиент_32-2" x1="6.52" y1="91.36" x2="32.58" y2="91.36" xlink:href="#Безымянный_градиент_32"/><linearGradient id="Безымянный_градиент_32-3" x1="9.77" y1="193.41" x2="70.48" y2="193.41" xlink:href="#Безымянный_градиент_32"/><linearGradient id="Безымянный_градиент_32-4" x1="79.08" y1="112.95" x2="171.26" y2="112.95" xlink:href="#Безымянный_градиент_32"/><linearGradient id="Безымянный_градиент_32-5" x1="90.33" y1="167.75" x2="113.98" y2="167.75" xlink:href="#Безымянный_градиент_32"/><linearGradient id="Безымянный_градиент_32-6" x1="66.69" y1="161.83" x2="90.33" y2="161.83" xlink:href="#Безымянный_градиент_32"/><linearGradient id="Безымянный_градиент_32-7" x1="61.08" y1="176.76" x2="78.71" y2="176.76" xlink:href="#Безымянный_градиент_32"/><linearGradient id="Безымянный_градиент_32-8" x1="118.57" y1="151.88" x2="100.94" y2="151.85" xlink:href="#Безымянный_градиент_32"/><linearGradient id="Безымянный_градиент_24" x1="33.78" y1="87.4" x2="56.4" y2="87.4" gradientUnits="userSpaceOnUse"><stop offset="0.27" stop-color="aqua"/><stop offset="1" stop-color="#03f"/></linearGradient><linearGradient id="Безымянный_градиент_32-9" x1="33.68" y1="84.77" x2="62.02" y2="84.77" xlink:href="#Безымянный_градиент_32"/><linearGradient id="Безымянный_градиент_24-2" x1="67.8" y1="58.39" x2="94.65" y2="58.39" xlink:href="#Безымянный_градиент_24"/><linearGradient id="Безымянный_градиент_32-10" x1="67.67" y1="55.13" x2="101.33" y2="55.13" xlink:href="#Безымянный_градиент_32"/><linearGradient id="Безымянный_градиент_24-3" x1="110.74" y1="24.57" x2="140.34" y2="24.57" xlink:href="#Безымянный_градиент_24"/><linearGradient id="Безымянный_градиент_32-11" x1="110.7" y1="20.3" x2="147.68" y2="20.3" xlink:href="#Безымянный_градиент_32"/><linearGradient id="Безымянный_градиент_32-12" x1="0" y1="154.79" x2="180.85" y2="154.79" xlink:href="#Безымянный_градиент_32"/></defs><title>Ресурс 4</title><g id="Слой_2" data-name="Слой 2"><g id="Слой_1-2" data-name="Слой 1"><path class="cls-1" d="M162.86,147.07"/><path class="cls-2" d="M60.3,85.31l9.52-.49,9.52-.43,19-.74,19-.62,19-.51-.27,0a3.32,3.32,0,0,0,1.59-.75,3.16,3.16,0,0,0,.94-1.44l-.07.27,1.18-6.15.15-.8a7.45,7.45,0,0,1,.29-1.08,7.36,7.36,0,0,1,1.05-2,6.89,6.89,0,0,1,3.78-2.53,7.15,7.15,0,0,1,1.12-.2l.57,0h.4l1.58,0,3.15-.06,6.3-.12c8.41-.16,16.81-.22,25.22-.34h.3l.3.07a7.94,7.94,0,0,1,2.3,1,7.69,7.69,0,0,1,1.9,1.64,7.84,7.84,0,0,1,1.81,4.6v.29L187.64,112c-.91,12.38-1.75,24.76-2.74,37.13l-1.48,18.56-1.58,18.55c-1.13,12.36-2.24,24.72-3.59,37.07.2-12.42.65-24.82,1.07-37.23l.75-18.6.86-18.6c.56-12.4,1.28-24.79,1.93-37.18l2.24-37.16v.29a2.89,2.89,0,0,0-.65-1.69,2.74,2.74,0,0,0-.69-.6,3,3,0,0,0-.86-.37l.6.07c-8.41,0-16.81.13-25.22.12H146.64a2.69,2.69,0,0,0-.43.07,2.44,2.44,0,0,0-1.38.88,3,3,0,0,0-.44.79,3.15,3.15,0,0,0-.13.44l-.16.75-1.32,6.21,0,.16,0,.11a7.31,7.31,0,0,1-5.92,4.78l-.16,0h-.11l-19.05-.11-19.05-.23-19.05-.35-9.53-.23Z"/><path class="cls-3" d="M8.91,99.38c-.08-.91-.08-1.79-.08-2.68S8.91,95,9,94.09A50.54,50.54,0,0,1,9.71,89l-.05.23a6.54,6.54,0,0,1,.56-2,6.45,6.45,0,0,1,1.21-1.8,6.71,6.71,0,0,1,3.84-2l.16,0h.19a60,60,0,0,1,8.46.39c1.41.17,2.82.39,4.23.69a29.29,29.29,0,0,1,4.24,1.21A29.29,29.29,0,0,1,28.34,87c-1.4.34-2.81.59-4.22.79a60,60,0,0,1-8.45.6l.35,0a2.52,2.52,0,0,0-1.21.51,2.64,2.64,0,0,0-.48.51A3.84,3.84,0,0,0,14,90l-.05.23a50.54,50.54,0,0,1-2.17,4.67c-.41.76-.83,1.52-1.3,2.27S9.48,98.66,8.91,99.38Z"/><path class="cls-4" d="M12.27,171.11c1.22,8,1.95,16.1,2.5,24.17.15,2,.29,4,.39,6.05l.31,5.82a3.91,3.91,0,0,0,2,3,4.23,4.23,0,0,0,1.79.52H22.1c8.06.07,16.13.28,24.19.75s16.12,1,24.17,2.15c-8.07,1-16.13,1.45-24.19,1.75s-16.11.41-24.17.35l-3.17-.05a9,9,0,0,1-4-1.21,8.64,8.64,0,0,1-3-2.94,8.81,8.81,0,0,1-1.24-3.9c0-.17,0-.34,0-.52v-2.74l0-3c0-2,.06-4,.11-6C11.07,187.24,11.43,179.19,12.27,171.11Z"/><path class="cls-5" d="M79.08,112.95c7.68-.83,15.36-1.26,23-1.55,3.84-.18,7.68-.23,11.52-.33l11.52-.11,11.52.11c3.84.11,7.68.15,11.52.33,7.68.29,15.36.73,23,1.56-7.68.83-15.36,1.27-23,1.56-3.84.19-7.68.22-11.52.33l-11.52.11-11.52-.11c-3.84-.11-7.68-.15-11.52-.33C94.44,114.21,86.76,113.78,79.08,112.95Z"/><path class="cls-6" d="M104.44,149.08a18,18,0,0,1,8.35,10.31,18.89,18.89,0,0,1,.8,3.41,18.43,18.43,0,0,1,.19,3.52v.89l-.11.88c-.08.59-.13,1.18-.25,1.76l-.42,1.73c-.15.58-.38,1.12-.57,1.69a20.88,20.88,0,0,1-9,10.59A20.57,20.57,0,0,1,97,186.2a17.73,17.73,0,0,1-6.64-.22,35.31,35.31,0,0,0,5.91-2.12,27.06,27.06,0,0,0,5-3.23,22.53,22.53,0,0,0,6.53-9.14A20.33,20.33,0,0,0,109,166a21.39,21.39,0,0,0-.07-5.71A26.37,26.37,0,0,0,104.44,149.08Z"/><path class="cls-7" d="M76,180.41a17.94,17.94,0,0,1-8.2-10.34,19.28,19.28,0,0,1-.76-3.4c-.09-.58-.13-1.16-.17-1.74v-1.76a20.61,20.61,0,0,1,1.41-6.9,21,21,0,0,1,3.61-6,21.28,21.28,0,0,1,5.36-4.46,20.59,20.59,0,0,1,6.43-2.31,17.64,17.64,0,0,1,6.61.23,35.28,35.28,0,0,0-5.88,2.11,27.28,27.28,0,0,0-4.94,3.2A22.67,22.67,0,0,0,73,158.08a20.78,20.78,0,0,0-1.35,5.42,21.68,21.68,0,0,0,0,5.69A26.42,26.42,0,0,0,76,180.41Z"/><path class="cls-8" d="M62.27,174.43a24.48,24.48,0,0,1,4,.72A38.26,38.26,0,0,1,70,176.33a49.15,49.15,0,0,1,7,3.24l-3.68,2.11a49.18,49.18,0,0,1,.79-7c.23-1.17.5-2.33.84-3.5a23.92,23.92,0,0,1,1.29-3.48,23.92,23.92,0,0,1,1.08,3.56c.27,1.18.46,2.36.62,3.54a49.18,49.18,0,0,1,.35,7.06l-.08,4-3.6-1.9a49.16,49.16,0,0,1-6.52-4.09,38.27,38.27,0,0,1-3-2.48A24.49,24.49,0,0,1,62.27,174.43Z"/><path class="cls-9" d="M117.38,154.21a24.49,24.49,0,0,1-4-.73,38.25,38.25,0,0,1-3.73-1.19,49.15,49.15,0,0,1-7-3.25l3.68-2.11a49.18,49.18,0,0,1-.8,7c-.23,1.17-.5,2.33-.85,3.5a23.92,23.92,0,0,1-1.3,3.48,23.92,23.92,0,0,1-1.07-3.56c-.27-1.18-.46-2.36-.62-3.54a49.18,49.18,0,0,1-.34-7.06l.09-4,3.59,1.91a49.15,49.15,0,0,1,6.51,4.1,38.25,38.25,0,0,1,3,2.49A24.48,24.48,0,0,1,117.38,154.21Z"/><path class="cls-10" d="M56.4,97.07l-18.46,0a2.75,2.75,0,0,1-2.43-2.76l-.23-18"/><path class="cls-11" d="M33.69,76.59a.48.48,0,0,1,.15-.45l4.48-4.49a1.74,1.74,0,0,1,1.5-.64l20.91-.14a1.24,1.24,0,0,1,.87.4,1.29,1.29,0,0,1,.25,1.14L62,92.16a2.37,2.37,0,0,1-.16,1.44,2.33,2.33,0,0,1-.66.84L56.78,98.5a.53.53,0,0,1-.91-.44v-20a1.13,1.13,0,0,0-.27-.91,1.1,1.1,0,0,0-1.16-.27H34.38A.53.53,0,0,1,33.69,76.59Z"/><path class="cls-12" d="M94.65,70.5l-22.16,0a3.35,3.35,0,0,1-2.15-1.2,3.53,3.53,0,0,1-.77-2.21L69.3,44.79"/><path class="cls-13" d="M67.68,45.21a.59.59,0,0,1,.17-.54l5.32-5.45a2.08,2.08,0,0,1,.7-.57,2,2,0,0,1,1.08-.2l24.83-.17a1.46,1.46,0,0,1,1,.48,1.59,1.59,0,0,1,.3,1.38l.15,23.95a2.94,2.94,0,0,1-.19,1.74,2.82,2.82,0,0,1-.78,1l-5.2,4.93a.63.63,0,0,1-.67.15.66.66,0,0,1-.41-.68L94,47a1.39,1.39,0,0,0-.32-1.1,1.29,1.29,0,0,0-1.37-.33H68.5A.63.63,0,0,1,67.68,45.21Z"/><path class="cls-14" d="M140.34,39.14l-24.57,0a3.62,3.62,0,0,1-2.38-1.44,4.84,4.84,0,0,1-.85-2.67c-.07-1.72-.23-12.16-.3-26.5"/><path class="cls-15" d="M110.72,8.35a.75.75,0,0,1,.19-.65l5.85-6.56a2.35,2.35,0,0,1,.77-.69A2.07,2.07,0,0,1,118.71.2L146,0a1.54,1.54,0,0,1,1.14.58,2.07,2.07,0,0,1,.33,1.67l.16,28.84a3.86,3.86,0,0,1-.21,2.1,3.37,3.37,0,0,1-.86,1.23l-5.71,5.94a.65.65,0,0,1-.73.18.81.81,0,0,1-.45-.82l0-29.23a1.8,1.8,0,0,0-.35-1.32,1.34,1.34,0,0,0-1.51-.4H111.61A.67.67,0,0,1,110.72,8.35Z"/><path class="cls-16" d="M124.74,223.29c-9.88.2-19.77.43-29.65.56l-29.65.46q-14.82.25-29.65.4L6.14,225h.2a5.3,5.3,0,0,1-2.26-.23A4.95,4.95,0,0,1,.9,221.56a5.45,5.45,0,0,1-.24-1.09,5.27,5.27,0,0,1,0-1.17v.21C.5,200.46.29,181.41.23,162.35S0,124.24,0,105.19V105l0-.17a6.7,6.7,0,0,1,1.44-3.27,6.52,6.52,0,0,1,3-2,7.08,7.08,0,0,1,1.72-.34l.44,0H19.08l18.41,0H74.32l36.82.06,18.41.06a2,2,0,0,0,1-.21,1.28,1.28,0,0,0,.54-.59,1.64,1.64,0,0,0,.13-.45V97.9s0-.11,0-.19V94.86l0-4.72a6.09,6.09,0,0,1,4.18-5.48l.35-.12h.36l22.15.17,11.07.1,2.77,0,1.38,0h1.12l.54,0a5.59,5.59,0,0,1,3.73,2,5.65,5.65,0,0,1,1,1.91,5.81,5.81,0,0,1,.21,1,5.11,5.11,0,0,1,0,.56v.35l-.34,44.38c-.17,14.79-.26,29.58-.5,44.37l-.32,22.18-.16,11.09-.08,5.55,0,2.77a4.63,4.63,0,0,1,0,.76,2.29,2.29,0,0,1-.3.78,2.25,2.25,0,0,1-1.31,1l-.06,0h0l-17.5-.28,17.5-.44h-.1a1.49,1.49,0,0,0,1-1.19,4.19,4.19,0,0,0,0-.63l0-2.77-.09-5.55-.18-11.09-.37-22.18c-.28-14.79-.4-29.57-.6-44.36l-.44-44.36v-.48A1.82,1.82,0,0,0,176,90a1.62,1.62,0,0,0-.29-.53,1.52,1.52,0,0,0-1-.52l-5.28,0L158.3,89l-22.22,0,.71-.11a1.56,1.56,0,0,0-1,1.42l.07,4.48,0,2.32v.58c0,.11,0,.14,0,.39s0,.31,0,.46a6.27,6.27,0,0,1-.48,1.76,6,6,0,0,1-2.49,2.77,6.58,6.58,0,0,1-3.43.83L111,104l-36.83.06H37.33l-18.42,0H6.5a2.25,2.25,0,0,0-.53.1,1.7,1.7,0,0,0-1.16,1.41l0-.35c0,19.06-.16,38.11-.23,57.17s-.27,38.11-.41,57.17v.21a2.16,2.16,0,0,0,.08.76,1.49,1.49,0,0,0,.34.61,1.47,1.47,0,0,0,.58.38,1.89,1.89,0,0,0,.75.1h.2l29.65.32q14.82.14,29.65.4l29.65.46C105,222.86,114.85,223.09,124.74,223.29Z"/></g></g></svg>