<svg xmlns="http://www.w3.org/2000/svg" xmlns:xlink="http://www.w3.org/1999/xlink" viewBox="0 0 230.62 179.37"><defs><style>.cls-1{fill:url(#Безымянный_градиент_32);}.cls-2{fill:url(#Безымянный_градиент_32-2);}.cls-3{fill:url(#Безымянный_градиент_32-3);}.cls-4{fill:url(#Безымянный_градиент_32-4);}.cls-5{fill:url(#Безымянный_градиент_32-5);}.cls-6{fill:url(#Безымянный_градиент_32-6);}.cls-7{fill:url(#Безымянный_градиент_32-7);}.cls-8{fill:url(#Безымянный_градиент_32-8);}.cls-9{fill:url(#Безымянный_градиент_32-9);}.cls-10{fill:url(#Безымянный_градиент_32-10);}.cls-11{fill:url(#Безымянный_градиент_32-11);}.cls-12{fill:url(#Безымянный_градиент_32-12);}.cls-13{fill:url(#Безымянный_градиент_32-13);}.cls-14{fill:url(#Безымянный_градиент_32-14);}.cls-15{fill:url(#Безымянный_градиент_32-15);}.cls-16{fill:url(#Безымянный_градиент_32-16);}.cls-17{fill:url(#Безымянный_градиент_32-17);}</style><linearGradient id="Безымянный_градиент_32" x1="-0.05" y1="111.94" x2="44.41" y2="111.94" gradientUnits="userSpaceOnUse"><stop offset="0" stop-color="aqua"/><stop offset="1" stop-color="blue"/></linearGradient><linearGradient id="Безымянный_градиент_32-2" x1="53.26" y1="153.18" x2="162.81" y2="153.18" xlink:href="#Безымянный_градиент_32"/><linearGradient id="Безымянный_градиент_32-3" x1="-0.45" y1="50.22" x2="162.79" y2="50.22" xlink:href="#Безымянный_градиент_32"/><linearGradient id="Безымянный_градиент_32-4" x1="89.89" y1="77.65" x2="151.1" y2="77.65" xlink:href="#Безымянный_градиент_32"/><linearGradient id="Безымянный_градиент_32-5" x1="9.36" y1="120.28" x2="82.14" y2="119.06" xlink:href="#Безымянный_градиент_32"/><linearGradient id="Безымянный_градиент_32-6" x1="9.12" y1="24.48" x2="76.73" y2="24.48" xlink:href="#Безымянный_градиент_32"/><linearGradient id="Безымянный_градиент_32-7" x1="134.68" y1="128.93" x2="29.41" y2="23.65" xlink:href="#Безымянный_градиент_32"/><linearGradient id="Безымянный_градиент_32-8" x1="106.42" y1="151" x2="111.93" y2="151" xlink:href="#Безымянный_градиент_32"/><linearGradient id="Безымянный_градиент_32-9" x1="20.91" y1="145.71" x2="25.31" y2="145.71" xlink:href="#Безымянный_градиент_32"/><linearGradient id="Безымянный_градиент_32-10" x1="37.48" y1="146.26" x2="41.87" y2="146.26" xlink:href="#Безымянный_градиент_32"/><linearGradient id="Безымянный_градиент_32-11" x1="9.75" y1="168.65" x2="183.6" y2="168.65" xlink:href="#Безымянный_градиент_32"/><linearGradient id="Безымянный_градиент_32-12" x1="163.35" y1="82.64" x2="230.63" y2="82.64" xlink:href="#Безымянный_градиент_32"/><linearGradient id="Безымянный_градиент_32-13" x1="124.79" y1="151.14" x2="135.92" y2="151.14" xlink:href="#Безымянный_градиент_32"/><linearGradient id="Безымянный_градиент_32-14" x1="181.53" y1="66.81" x2="210.98" y2="65.56" xlink:href="#Безымянный_градиент_32"/><linearGradient id="Безымянный_градиент_32-15" x1="181.56" y1="85.45" x2="211.01" y2="84.2" xlink:href="#Безымянный_градиент_32"/><linearGradient id="Безымянный_градиент_32-16" x1="181.6" y1="104.09" x2="211.05" y2="102.85" xlink:href="#Безымянный_градиент_32"/><linearGradient id="Безымянный_градиент_32-17" x1="181.63" y1="122.74" x2="211.08" y2="121.49" xlink:href="#Безымянный_градиент_32"/></defs><title>Ресурс 3</title><g id="Слой_2" data-name="Слой 2"><g id="Слой_1-2" data-name="Слой 1"><path class="cls-1" d="M44.3,157.54c-2.87.17-5.73.27-8.59.36l-8.58.18-8.58.06L10,158.08H9.76l-.35-.1a13.2,13.2,0,0,1-6.09-3.92,13.74,13.74,0,0,1-3.19-6.58l0-.16v-.24q-.3-20.34.25-40.67c.08-3.39.22-6.78.36-10.17l.2-5.08.27-5.08C1.55,79.3,2,72.52,2.71,65.74c.65,6.78,1.07,13.56,1.39,20.34l.24,5.08.17,5.08c.12,3.39.23,6.78.29,10.17q.41,20.34,0,40.67l0-.4a9.41,9.41,0,0,0,6,7.45l-.56-.11,8.54.68,8.54.8,8.53.92C38.62,156.78,41.46,157.12,44.3,157.54Z"/><path class="cls-2" d="M160.28,142.41q.28,3,.49,6t.38,6l0-.21a8.66,8.66,0,0,1,.21,3.05,7.24,7.24,0,0,1-1,3,7.54,7.54,0,0,1-2.21,2.37,8.33,8.33,0,0,1-3,1.29l-.09,0h-.24c-8.48,0-16.95-.05-25.41-.31s-16.93-.6-25.38-1.07-16.9-1.08-25.35-1.79-16.88-1.61-25.3-2.84c8.5-.49,17-.59,25.45-.63s16.95.13,25.41.41,16.92.64,25.38,1.14,16.9,1.14,25.34,1.9l-.33,0a5.28,5.28,0,0,0,2-.6,4.76,4.76,0,0,0,1.56-1.35,5.43,5.43,0,0,0,.91-1.94,6.59,6.59,0,0,0,.15-2.26l0-.2v0q.21-3,.49-6T160.28,142.41Z"/><path class="cls-3" d="M2.1,12.21A5.38,5.38,0,0,1,3.37,7.55,5,5,0,0,1,5.56,6.21,5.46,5.46,0,0,1,6.84,6L8.07,5.9l9.78-.64c6.52-.38,13-.79,19.56-1.11,13-.7,26.08-1.28,39.13-1.81L96.1,1.61,115.67,1c13-.44,26.1-.67,39.15-1h.48l.44.17a10.38,10.38,0,0,1,5.77,5.42,11.39,11.39,0,0,1,.92,3.8c0,.31,0,.62,0,.9v.78l0,1.57-.14,12.55-.45,25.09c-.22,8.36-.39,16.73-.69,25.09s-.59,16.72-1,25.07q-.61-12.53-1-25.06c-.3-8.35-.47-16.7-.69-25l-.45-25-.14-12.52,0-1.56v-.78c0-.24,0-.45,0-.66a6.73,6.73,0,0,0-.59-2.25A5.83,5.83,0,0,0,154,4.65l.92.16c-13.05.38-26.1.85-39.15,1.11l-19.58.44-19.58.31C63.58,6.84,50.53,7,37.47,7c-6.53,0-13.06,0-19.59-.06l-9.8-.11H6.86a5,5,0,0,0-1.13.1,4.39,4.39,0,0,0-2,1A5.15,5.15,0,0,0,2.1,12.21Z"/><path class="cls-4" d="M90,136.82c4.56,0,9.11.07,13.66.15s9.11.12,13.66.24l13.65.35,13.65.42h-.12a2.57,2.57,0,0,0,1.9-1,2.63,2.63,0,0,0,.46-1,3.53,3.53,0,0,0,.08-1.14v-.17c0-10,.12-20,.19-30s.26-20,.49-30c.1-5,.2-10,.35-15l.44-15c.15-5,.34-10,.56-15s.4-10,.68-15c.16,5,.25,10,.34,15s.19,10,.22,15l.1,15c0,5,0,10,0,15,0,10-.11,20-.18,30s-.25,20-.48,30v-.17a6.1,6.1,0,0,1-.18,2.13,5.29,5.29,0,0,1-1,2,5.19,5.19,0,0,1-3.84,1.89h-.12l-13.63-.8-13.63-.87c-4.54-.28-9.08-.65-13.62-1S94.5,137.23,90,136.82Z"/><path class="cls-5" d="M11.89,102.45C13,110.73,13.56,119,14,127.17a12.86,12.86,0,0,0,.26,2.68,1.28,1.28,0,0,0,.3.53.81.81,0,0,0,.37.19,2,2,0,0,0,.34.06l.23,0h.37l1.55,0,3.1.09c4.13.13,8.26.32,12.39.53,8.25.45,16.49,1,24.72,1.88s16.45,1.8,24.66,3.29c-8.32.59-16.62.69-24.91.61s-16.58-.35-24.85-.79c-4.14-.23-8.27-.49-12.4-.8l-3.1-.24-1.55-.13-.4,0-.54-.08a6.2,6.2,0,0,1-1.16-.33,5.1,5.1,0,0,1-2.14-1.57,5.4,5.4,0,0,1-1-2.24,7.3,7.3,0,0,1-.15-1.94l.06-1.56C10.41,119,10.9,110.72,11.89,102.45Z"/><path class="cls-6" d="M76.68,14.75C69.81,15.94,62.92,16.61,56,17.16s-13.79.84-20.69,1c-3.45.07-6.9.11-10.35.1-1.72,0-3.45,0-5.17-.05l-2.59,0a8,8,0,0,0-1,0,3.25,3.25,0,0,0-2.95,2.55,4.76,4.76,0,0,0-.16.94l0,1.27-.1,2.6c-.2,3.47-.38,6.94-.78,10.41-.7-3.42-1.18-6.84-1.67-10.25l-.32-2.56-.16-1.32a7.82,7.82,0,0,1,0-1.63A6.83,6.83,0,0,1,11.25,17,6.64,6.64,0,0,1,14,14.66a7.28,7.28,0,0,1,1.68-.55A11.37,11.37,0,0,1,17.25,14l2.58-.16c1.72-.12,3.44-.19,5.16-.28,3.44-.16,6.88-.27,10.33-.35q10.33-.22,20.66.09C62.87,13.49,69.77,13.86,76.68,14.75Z"/><path class="cls-7" d="M20.26,35.45l.29,81.77a4.5,4.5,0,0,0,.92,3.33,4.6,4.6,0,0,0,3.63,1.61L134,126.6a6.19,6.19,0,0,0,4.84-1.81,6.07,6.07,0,0,0,1.61-4.23l.2-85.6a11.49,11.49,0,0,0-2.42-7.26,10.63,10.63,0,0,0-2.62-2.32L26.34,28.14a8.75,8.75,0,0,0-6.08,7.31Z"/><circle class="cls-8" cx="109.17" cy="151" r="2.75"/><path class="cls-9" d="M22.4,140.42a8,8,0,0,1,1.52,2.49,11.14,11.14,0,0,1,.68,2.6,10.94,10.94,0,0,1,0,2.69,7.94,7.94,0,0,1-.81,2.8,7.94,7.94,0,0,1-1.52-2.49,11,11,0,0,1-.67-2.6,11.14,11.14,0,0,1,0-2.69A8,8,0,0,1,22.4,140.42Z"/><path class="cls-10" d="M39,141a8,8,0,0,1,1.52,2.49,11.14,11.14,0,0,1,.68,2.6,10.94,10.94,0,0,1,0,2.69,7.94,7.94,0,0,1-.81,2.8,7.94,7.94,0,0,1-1.52-2.49,11,11,0,0,1-.67-2.6,11.14,11.14,0,0,1,0-2.69A8,8,0,0,1,39,141Z"/><path class="cls-11" d="M12.24,157.94l.46,4.12.11,1a2.18,2.18,0,0,0,.28.83,1.92,1.92,0,0,0,1.33.92h-.08c14.52.49,29,1.33,43.49,2.28,7.24.54,14.48,1,21.71,1.63s14.46,1.17,21.68,1.86c14.45,1.34,28.89,2.76,43.29,4.44l5.4.62,2.7.32a9.33,9.33,0,0,0,2.36.12l1.15-.15c.39-.06.87-.2,1.3-.3l2.64-.64,5.29-1.27c3.54-.81,7.06-1.67,10.6-2.45l2.66-.59.66-.15.33-.07.23-.07a1.07,1.07,0,0,0,.61-.74l.64-5.38.07,5.48a1.83,1.83,0,0,1-.9,1.41,2,2,0,0,1-.4.18l-.33.11-.64.22-2.58.88c-3.44,1.18-6.89,2.29-10.34,3.44l-5.18,1.67-2.59.83c-.45.13-.83.29-1.33.4l-1.53.32a12.59,12.59,0,0,1-3.07.08l-2.72-.16-5.43-.34c-14.49-.89-28.94-2-43.39-3.28-7.23-.6-14.44-1.34-21.66-2S64.66,172,57.45,171.29c-14.41-1.62-28.81-3.35-43.19-5.44h-.08a2.85,2.85,0,0,1-1.81-1.57,2.77,2.77,0,0,1-.23-1.16l0-1Z"/><path class="cls-12" d="M164.89,3.73c2.77,2.24,5.41,4.63,8.06,7l7.93,7.14c5.29,4.75,10.54,9.53,15.9,14.15,2.69,2.29,5.36,4.62,8.12,6.71a78.92,78.92,0,0,0,8.68,5.74,94.77,94.77,0,0,0,9.29,4.69l1.21.52.61.25c.2.09.38.15.74.33a6.41,6.41,0,0,1,2.86,2.87,6.27,6.27,0,0,1,.61,2l.14,1.37.26,2.7c.67,7.12,1,14.28,1.22,21.43s.11,14.32-.2,21.47-.8,14.29-1.62,21.4q-.6,5.33-1.35,10.64l-.79,5.28-.21,1.3a5.72,5.72,0,0,1-.66,2,5.61,5.61,0,0,1-3.15,2.6l-.1,0h-.06l-14.57,3.59q-7.28,1.85-14.5,3.91c-4.83,1.34-9.63,2.77-14.43,4.23q-3.6,1.08-7.19,2.23l-7.19,2.27,6.92-3q3.48-1.45,7-2.85c4.68-1.85,9.4-3.6,14.14-5.29s9.54-3.24,14.34-4.75,9.67-2.81,14.52-4.22l-.16,0a1.54,1.54,0,0,0,.83-.76,1.59,1.59,0,0,0,.15-.55l.16-1.34.66-5.28q.62-5.26,1.07-10.54c.59-7,1.08-14.08,1.32-21.14s.28-14.11.18-21.17-.48-14.11-1-21.15L224.44,57l-.1-1.29a1.73,1.73,0,0,0-.15-.55,1.87,1.87,0,0,0-.81-.87l-2.32-1.06a88.29,88.29,0,0,1-9.6-5.17,82.82,82.82,0,0,1-8.85-6.37c-2.81-2.33-5.43-4.75-8-7.24C184.29,24.53,174.69,14,164.89,3.73Z"/><path class="cls-13" d="M135.52,155.47a1.24,1.24,0,0,1-1,.27l-8.34-.54a1.32,1.32,0,0,1-1-.4,1.3,1.3,0,0,1-.35-.83l0-6.08A1.19,1.19,0,0,1,125,147a1.22,1.22,0,0,1,.91-.5l8.59.39a1.4,1.4,0,0,1,1.12.45,1.36,1.36,0,0,1,.31,1q0,3.12,0,6.25A1.23,1.23,0,0,1,135.52,155.47Z"/><path class="cls-14" d="M210.89,67.64a1.23,1.23,0,0,1-.93.56l-27.22,3.3a.76.76,0,0,1-1-.77l-.18-5.79a1,1,0,0,1,.12-.64.8.8,0,0,1,.63-.4l27.28-3a.92.92,0,0,1,1.14.9l.33,5.13A1.15,1.15,0,0,1,210.89,67.64Z"/><path class="cls-15" d="M210.92,86.28a1.23,1.23,0,0,1-.93.56l-27.22,3.3a.76.76,0,0,1-1-.77l-.18-5.79a1,1,0,0,1,.12-.64.8.8,0,0,1,.63-.4l27.28-3a.92.92,0,0,1,1.14.9l.33,5.13A1.15,1.15,0,0,1,210.92,86.28Z"/><path class="cls-16" d="M211,104.92a1.23,1.23,0,0,1-.93.56l-27.22,3.3a.76.76,0,0,1-1-.77l-.18-5.79a1,1,0,0,1,.12-.64.8.8,0,0,1,.63-.4l27.28-3a.92.92,0,0,1,1.14.9l.33,5.13A1.15,1.15,0,0,1,211,104.92Z"/><path class="cls-17" d="M211,123.57a1.23,1.23,0,0,1-.93.56l-27.22,3.3a.76.76,0,0,1-1-.77l-.18-5.79a1,1,0,0,1,.12-.64.8.8,0,0,1,.63-.4l27.28-3a.92.92,0,0,1,1.14.9l.33,5.13A1.15,1.15,0,0,1,211,123.57Z"/></g></g></svg>