<svg xmlns="http://www.w3.org/2000/svg" xmlns:xlink="http://www.w3.org/1999/xlink" viewBox="0 0 167.34 220.07"><defs><style>.cls-1{fill:url(#Безымянный_градиент_32);}.cls-2{fill:url(#Безымянный_градиент_32-2);}.cls-3{fill:url(#Безымянный_градиент_32-3);}.cls-4{fill:url(#Безымянный_градиент_32-4);}.cls-5{fill:url(#Безымянный_градиент_32-5);}</style><linearGradient id="Безымянный_градиент_32" x1="33.2" y1="219.9" x2="33.2" y2="-0.02" gradientUnits="userSpaceOnUse"><stop offset="0" stop-color="aqua"/><stop offset="1" stop-color="blue"/></linearGradient><linearGradient id="Безымянный_градиент_32-2" x1="102.15" y1="221.22" x2="102.15" y2="9.68" xlink:href="#Безымянный_градиент_32"/><linearGradient id="Безымянный_градиент_32-3" x1="115.74" y1="200.17" x2="115.74" y2="-3.73" xlink:href="#Безымянный_градиент_32"/><linearGradient id="Безымянный_градиент_32-4" x1="75.23" y1="219.09" x2="75.23" y2="57.99" xlink:href="#Безымянный_градиент_32"/><linearGradient id="Безымянный_градиент_32-5" x1="48.6" y1="220.89" x2="48.6" y2="180.21" xlink:href="#Безымянный_градиент_32"/></defs><title>Ресурс 8</title><g id="Слой_2" data-name="Слой 2"><g id="Слой_1-2" data-name="Слой 1"><path class="cls-1" d="M0,217.86c.34-4.76.87-9.46,1.46-14.16s1.26-9.36,2-14c1.43-9.31,3.11-18.56,4.91-27.78Q13.82,134.27,21,107.1T37,53.16q4.43-13.36,9.31-26.59l1.22-3.28.59-1.62a1.87,1.87,0,0,1,.2-.36l.06-.08,0-.37c0-.24.09-.47.14-.69a8.33,8.33,0,0,1,2.83-4.47c.35-.29.56-.41.81-.58l.74-.5,1.48-1C58.32,11,62.3,8.42,66.4,6c-2.92,3.77-6,7.4-9.06,11l-1.16,1.34L55.6,19a6.59,6.59,0,0,0-.49.59,2.37,2.37,0,0,0-.4,1.63,1.24,1.24,0,0,0,0,.18l0,.07a2.81,2.81,0,0,1,0,.35c0,.45-.09.94-.15,1.37L54.36,25l-.47,3.54c-1.34,9.37-3,18.62-4.76,27.85Q43.72,84,36.49,111.18t-16,53.93c-3,8.9-6.11,17.77-9.47,26.58-1.69,4.4-3.41,8.79-5.24,13.16S2.06,213.55,0,217.86Z"/><path class="cls-2" d="M152.75,219.2c-4.33-9.73-8.1-19.6-11.75-29.51s-7-19.89-10.26-29.89q-9.69-30-17.7-60.51C107.66,79,102.84,58.5,98.46,38l-.81-3.71c-.14-.65-.22-1-.36-1.5a14.23,14.23,0,0,0-.46-1.38,18.35,18.35,0,0,0-1.32-2.72c-.24-.41-.57-.9-.72-1.15.07.06,0,0,0,0l-.1-.12-.23-.27c-.16-.18-.33-.37-.51-.56a19.07,19.07,0,0,0-2.32-2.05,10.09,10.09,0,0,0-2.28-1.33,30.87,30.87,0,0,0-6.72-1.56,111.35,111.35,0,0,0-15.29-.83c-5.21,0-10.48.24-15.79.56a111.43,111.43,0,0,1,15.23-5c2.6-.69,5.25-1.19,7.93-1.68s5.41-.76,8.21-.93a38.05,38.05,0,0,1,8.87.47,18.55,18.55,0,0,1,4.93,1.78,29.14,29.14,0,0,1,4.06,2.56c.32.24.64.49,1,.75l.48.41.25.23c.09.08.17.15.34.33a24.11,24.11,0,0,1,1.71,1.94,29.73,29.73,0,0,1,2.71,4c.4.72.78,1.46,1.12,2.23s.67,1.62.88,2.24c.51,1.38.9,2.61,1.33,3.87,6.7,20.06,12.56,40.21,17.93,60.55s10.17,40.79,14.36,61.42c2.07,10.32,4,20.67,5.7,31.09S151.78,208.6,152.75,219.2Z"/><path class="cls-3" d="M167.34,198.27c-2.09-4.81-4-9.66-5.84-14.52s-3.62-9.74-5.35-14.63c-3.45-9.78-6.68-19.61-9.79-29.47-6.18-19.73-11.84-39.57-17.13-59.48L125.3,65.22l-3.81-14.95-3.77-14.91L115.8,28c-.64-2.44-1.29-4.89-2-7.17-.33-1.11-.76-2.3-1-2.93a1,1,0,0,1,0-.13v-.07l-.08-.15c-.12-.2-.22-.42-.35-.62q-.37-.61-.8-1.22a20,20,0,0,0-1.95-2.3,17.92,17.92,0,0,0-2.06-1.82,15.85,15.85,0,0,0-5.46-2.32,33,33,0,0,0-3.45-.61c-1.2-.19-2.44-.28-3.67-.43-10-.93-20.39-.87-30.83-1A146,146,0,0,1,79.27,3,130.73,130.73,0,0,1,94.94.34C96.29.23,97.63.11,99,.07a41.87,41.87,0,0,1,4.27,0,25.09,25.09,0,0,1,9.25,2.26,23.35,23.35,0,0,1,4.26,2.63,31.38,31.38,0,0,1,3.54,3.15q.83.87,1.61,1.82c.26.31.5.65.75,1l.19.25.22.35.44.71a41.5,41.5,0,0,1,2,4.2c2.19,5.07,3.93,9.95,5.65,14.91s3.29,9.9,4.86,14.85,3,9.94,4.45,14.92l4.13,15q8,30,13.83,60.53c1.93,10.17,3.71,20.38,5.23,30.65.74,5.14,1.46,10.28,2.07,15.45S167,193,167.34,198.27Z"/><path class="cls-4" d="M78.92,79.16c-.74-2-1.45-4-2.28-5.89a26.37,26.37,0,0,0-1.33-2.7,7.79,7.79,0,0,0-1.53-2c-.24-.18-.47-.24-.44-.12s.34.21.44.23,0,.16-.11.39-.28.56-.43.94a30.8,30.8,0,0,0-1.48,5.3c-.8,3.85-1.32,7.91-1.82,12S69,95.39,68.63,99.5l-2.4,24.75L65,136.67l-.7,6.22L63.9,146a3.07,3.07,0,0,0,0,.58s0,0,0-.29a3.63,3.63,0,0,0-.58-1.24,4.81,4.81,0,0,0-1.69-1.47,3.55,3.55,0,0,0-1.18-.4,2.7,2.7,0,0,0,.49,0H63l.73,0c1.11,0,2.2,0,3.29,0,4.36.07,8.7.21,13.09.63l1.65.17c.53.06,1.11.12,1.86.22a19.51,19.51,0,0,1,4.92,1.32,16.1,16.1,0,0,1,2.51,1.33q.3.19.59.4c.2.15.33.23.71.53s.73.65,1,1a18.67,18.67,0,0,1,3.06,4.06c.21.38.41.77.6,1.18s.36.89.53,1.34l.12.34c0,.11,0,.17.08.25l.13.48.26,1c.28,1.18.55,2.31.73,3.4.4,2.2.71,4.32,1,6.44,1.14,8.48,1.85,16.87,2.25,25.32.19,4.22.32,8.45.34,12.69s0,8.48-.29,12.75c-5.84-16-10.1-32.31-14.62-48.17-.56-2-1.13-3.94-1.74-5.8-.3-1-.59-1.83-.89-2.66l-.22-.53-.11-.27a1.24,1.24,0,0,0,0-.12l0,0a.32.32,0,0,1-.07-.11l-.15-.19a4.72,4.72,0,0,0-.87-.81c-.07,0-.16-.1-.13-.07s.08.08.07.08l-.07,0-.29-.08A7.37,7.37,0,0,0,82,159l-2.75-.09c-4-.1-8-.12-12,0l-6.33.18a19.09,19.09,0,0,1-2.65-.14,12.21,12.21,0,0,1-4.17-1.29,11.24,11.24,0,0,1-4-3.55,12.11,12.11,0,0,1-1.82-4.1,14.5,14.5,0,0,1-.38-3.4,19.57,19.57,0,0,1,.18-2.55l.4-3.11c.28-2.08.53-4.16.83-6.24.63-4.15,1.21-8.32,1.92-12.47s1.43-8.31,2.29-12.46,1.75-8.29,2.76-12.42c.49-2.07,1.06-4.13,1.62-6.19S59.05,87,59.72,85a100.18,100.18,0,0,1,4.65-12.27A32.48,32.48,0,0,1,68,66.6,13,13,0,0,1,69.47,65a6.84,6.84,0,0,1,2.42-1.42,4.5,4.5,0,0,1,3.49.31,5.25,5.25,0,0,1,1.93,1.89,11.08,11.08,0,0,1,1.27,3.56A27.17,27.17,0,0,1,79,72.7,47.8,47.8,0,0,1,78.92,79.16Z"/><path class="cls-5" d="M50.7,181.65a45.24,45.24,0,0,1,1.85,13,96.76,96.76,0,0,1-.69,11.83l-.28,2.67c-.09.84-.15,1.64-.19,2.19,0,.25,0,.48-.12.39s-.12-.16-.33-.43c0,0-.11-.13-.19-.23a2.28,2.28,0,0,0-.26-.25,3.84,3.84,0,0,0-.84-.61,4.29,4.29,0,0,0-1.13-.41,3,3,0,0,0-.59-.06,2.48,2.48,0,0,0-.43,0,2.42,2.42,0,0,0-.42.08l-.23.07a1.15,1.15,0,0,0-.32.17.49.49,0,0,0-.1.13l.07,0c0,.06.19,0,.31,0a10.37,10.37,0,0,0,2.17-1c.81-.46,1.68-1,2.57-1.54a51.69,51.69,0,0,1,5.91-3.2,23.57,23.57,0,0,1-1.26,6.82,22.41,22.41,0,0,1-1.37,3.2,14.26,14.26,0,0,1-2.27,3.24,8.11,8.11,0,0,1-1,.86L51,219c-.26.16-.53.3-.81.44a5.68,5.68,0,0,1-1.05.4c-.2.06-.38.11-.6.16s-.53.07-.8.09-.54,0-.81,0a8.08,8.08,0,0,1-1-.15,6,6,0,0,1-1.84-.7,7.1,7.1,0,0,1-1.44-1.09c-.17-.18-.34-.36-.5-.55a5.74,5.74,0,0,1-.41-.54,9.08,9.08,0,0,1-1-1.82,13.09,13.09,0,0,1-.74-2.62,22.5,22.5,0,0,1-.33-4,33.52,33.52,0,0,1,.19-3.47,42.63,42.63,0,0,1,3.41-12.47A36,36,0,0,1,50.7,181.65Z"/></g></g></svg>